<svg xmlns="http://www.w3.org/2000/svg" xmlns:xlink="http://www.w3.org/1999/xlink" viewBox="0 0 691.09 52.4"><defs><style>.cls-1{fill:none;}.cls-2{clip-path:url(#clip-path);}.cls-3{clip-path:url(#clip-path-2);}</style><clipPath id="clip-path" transform="translate(-0.03)"><rect class="cls-1" width="368" height="52.4"/></clipPath><clipPath id="clip-path-2" transform="translate(-0.03)"><rect class="cls-1" x="371" width="321" height="52.4"/></clipPath></defs><g id="Layer_2" data-name="Layer 2"><g id="Layer_1-2" data-name="Layer 1"><g class="cls-2"><path d="M0,25.88A25.24,25.24,0,0,1,2.09,15.7,23.55,23.55,0,0,1,8,7.53a28.51,28.51,0,0,1,9.54-5.47,38,38,0,0,1,12.74-2A48.57,48.57,0,0,1,41.74,1.33a35.83,35.83,0,0,1,9.67,3.83L46.66,13a17.81,17.81,0,0,0-3.09-1.57,27.49,27.49,0,0,0-3.72-1.14,34.88,34.88,0,0,0-4.07-.74,32.91,32.91,0,0,0-4.17-.27,29.12,29.12,0,0,0-8.83,1.23,19.09,19.09,0,0,0-6.55,3.42,14.63,14.63,0,0,0-4.05,5.25,16.12,16.12,0,0,0-1.38,6.72,16.78,16.78,0,0,0,1.43,7,15.57,15.57,0,0,0,4.16,5.46A19.69,19.69,0,0,0,23,41.87a28.28,28.28,0,0,0,8.9,1.3,29.06,29.06,0,0,0,4.47-.34,34.29,34.29,0,0,0,4.29-.89,34,34,0,0,0,4-1.36,33.47,33.47,0,0,0,3.6-1.75l4.76,7.83a35.2,35.2,0,0,1-9.65,4.19,43.57,43.57,0,0,1-11.66,1.51,42.76,42.76,0,0,1-13.8-2A28.74,28.74,0,0,1,8,44.72,23.27,23.27,0,0,1,2,36.3,27.16,27.16,0,0,1,0,25.88Zm64.4,25.8V.68H90.37a37.28,37.28,0,0,1,10.18,1.23,19.43,19.43,0,0,1,7.14,3.54,14.38,14.38,0,0,1,4.24,5.64,19.75,19.75,0,0,1,1.37,7.54,21.14,21.14,0,0,1-.68,5.4,15.81,15.81,0,0,1-2.1,4.72,16.19,16.19,0,0,1-3.58,3.83,19.38,19.38,0,0,1-5,2.78L113,51.68H100.33l-9.6-14.49h-.29l-15.67,0V51.68ZM74.77,28.23H90.64a16.88,16.88,0,0,0,5.13-.7,10.57,10.57,0,0,0,3.69-1.92,7.74,7.74,0,0,0,2.22-3,10.5,10.5,0,0,0,.73-4A8,8,0,0,0,99.47,12Q96.53,9.7,90.64,9.69H74.77Zm50.77,23.45V.68H169V9.76H135.89V19.94h29.29v8.51H135.89v14.2h33.75v9ZM178,25.88a25.4,25.4,0,0,1,2.05-10.18,23.36,23.36,0,0,1,6-8.17,28.36,28.36,0,0,1,9.53-5.47,38,38,0,0,1,12.73-2,48.53,48.53,0,0,1,11.44,1.26,36.16,36.16,0,0,1,9.68,3.83L224.65,13a18.07,18.07,0,0,0-3.08-1.57,28.4,28.4,0,0,0-3.72-1.14,35,35,0,0,0-4.08-.74,32.63,32.63,0,0,0-4.16-.27,29.28,29.28,0,0,0-8.84,1.23,19.14,19.14,0,0,0-6.54,3.42,14.74,14.74,0,0,0-4,5.25,16.13,16.13,0,0,0-1.39,6.72,16.48,16.48,0,0,0,1.45,7,15.3,15.3,0,0,0,4.15,5.46,19.65,19.65,0,0,0,6.66,3.58,28.11,28.11,0,0,0,8.88,1.3,29.09,29.09,0,0,0,4.48-.34,34.29,34.29,0,0,0,4.29-.89,34.83,34.83,0,0,0,4-1.36,34,34,0,0,0,3.58-1.75l4.77,7.83a35.4,35.4,0,0,1-9.66,4.19,43.58,43.58,0,0,1-11.64,1.51,42.78,42.78,0,0,1-13.81-2A28.69,28.69,0,0,1,186,44.72a23.15,23.15,0,0,1-6-8.42,27,27,0,0,1-2-10.42Zm61.4.16a25.85,25.85,0,0,1,2.12-10.57,23.78,23.78,0,0,1,5.95-8.24,26.92,26.92,0,0,1,9.21-5.34,38.28,38.28,0,0,1,23.76,0,27,27,0,0,1,9.22,5.34,23.93,23.93,0,0,1,6,8.24A25.85,25.85,0,0,1,297.76,26a26.25,26.25,0,0,1-2.11,10.64,24.22,24.22,0,0,1-6,8.34,27.15,27.15,0,0,1-9.22,5.43,37.16,37.16,0,0,1-23.76,0A27.1,27.1,0,0,1,247.5,45a24.07,24.07,0,0,1-5.95-8.34A26.25,26.25,0,0,1,239.43,26Zm10.34,0a17.2,17.2,0,0,0,1.42,7.11,15.5,15.5,0,0,0,3.95,5.39,17.7,17.7,0,0,0,6,3.45,24,24,0,0,0,15,0,17.51,17.51,0,0,0,6-3.45A15.86,15.86,0,0,0,286,33.15,17.2,17.2,0,0,0,287.42,26,17,17,0,0,0,286,19a15.29,15.29,0,0,0-3.94-5.29,17.41,17.41,0,0,0-6-3.32,25.21,25.21,0,0,0-15,0,17.59,17.59,0,0,0-6,3.32A15,15,0,0,0,251.19,19,17,17,0,0,0,249.77,26Zm59.51,25.64V.68h10.34l18.54,18.61L356.68.68H367v51H356.68V15L338.16,32.85,319.62,15V51.68Z" transform="translate(-0.03)"/></g><g class="cls-3"><path d="M371.26,26a25.69,25.69,0,0,1,2.13-10.57,23.91,23.91,0,0,1,5.95-8.24,27,27,0,0,1,9.2-5.34,38.31,38.31,0,0,1,23.77,0,26.83,26.83,0,0,1,9.21,5.34,23.8,23.8,0,0,1,6,8.24A25.69,25.69,0,0,1,429.6,26a26.09,26.09,0,0,1-2.12,10.64,24.09,24.09,0,0,1-6,8.34,27,27,0,0,1-9.21,5.43,37.19,37.19,0,0,1-23.77,0,27.15,27.15,0,0,1-9.2-5.43,24.2,24.2,0,0,1-5.95-8.34A26.09,26.09,0,0,1,371.26,26Zm10.34,0A17.2,17.2,0,0,0,383,33.15a15.63,15.63,0,0,0,4,5.39A17.46,17.46,0,0,0,393,42a23.94,23.94,0,0,0,15,0,17.51,17.51,0,0,0,6-3.45,15.86,15.86,0,0,0,3.94-5.39A17,17,0,0,0,419.26,26,16.85,16.85,0,0,0,417.82,19a15.29,15.29,0,0,0-3.94-5.29,17.41,17.41,0,0,0-6-3.32,25.14,25.14,0,0,0-15,0,17.36,17.36,0,0,0-6,3.32A15.07,15.07,0,0,0,383,19,17,17,0,0,0,381.6,26ZM441,51.68V.68h10.34l31.78,16.64V.68h10.34v51H483.14V28.29L451.36,11.75V51.68Zm66.87,0V.68h10.34V42.61H547.9v9.07Zm48.71,0V.68H567v51Zm23.52,0V.68h10.35l31.77,16.64V.68h10.35v51H622.24V28.29L590.47,11.75V51.68Zm66.89,0V.68h43.42V9.76H657.35V19.94h29.29v8.51H657.35v14.2h33.77v9Z" transform="translate(-0.03)"/></g></g></g></svg>