<svg xmlns="http://www.w3.org/2000/svg" xmlns:xlink="http://www.w3.org/1999/xlink" viewBox="0 0 185.06 189.58"><defs><style>.cls-1{fill:none;}.cls-2{clip-path:url(#clip-path);}.cls-3{clip-path:url(#clip-path-2);}</style><clipPath id="clip-path" transform="translate(-0.05)"><rect class="cls-1" x="47.89" y="50.11" width="89.37" height="89.37"/></clipPath><clipPath id="clip-path-2" transform="translate(-0.05)"><rect class="cls-1" width="186" height="189.58"/></clipPath></defs><g id="Layer_2" data-name="Layer 2"><g id="Layer_1-2" data-name="Layer 1"><g class="cls-2"><path d="M59.74,50.11c-11.25,0-11.85,10.64-11.85,11.24v78.13h77.52c11.25,0,11.85-10.65,11.85-11.25V50.11Zm46.19,26.51a6,6,0,1,1-6,6,6,6,0,0,1,6-6Zm-26.51,0a6,6,0,1,1-6,6,5.91,5.91,0,0,1,6-6ZM118.18,108c-6,5.62-15.26,8.83-25.1,8.83s-19.48-3.41-25.51-9a3.69,3.69,0,1,1,5.22-5.23c4.42,4.42,12,7,20.29,7,8,0,15.46-2.61,20.08-6.83a3.77,3.77,0,0,1,5.22.21,3.36,3.36,0,0,1-.2,5Z" transform="translate(-0.05)"/></g><g class="cls-3"><path d="M7.36,72.26a7.66,7.66,0,0,1-2.62-1.58,7.27,7.27,0,0,1-1.67-2.5A8.51,8.51,0,0,1,2.52,65a11.43,11.43,0,0,1,.74-3.74,14.44,14.44,0,0,1,1.5-3,10.48,10.48,0,0,1,2-2.3L8.49,58a5.29,5.29,0,0,0-.74.7,7.69,7.69,0,0,0-.71.92,9.84,9.84,0,0,0-.6,1A12.07,12.07,0,0,0,6,61.81a9.1,9.1,0,0,0-.56,2.58,5.66,5.66,0,0,0,.29,2.16,4.37,4.37,0,0,0,1,1.67,4.79,4.79,0,0,0,1.72,1.06,4.93,4.93,0,0,0,2.08.31A4.37,4.37,0,0,0,12.46,69a5.93,5.93,0,0,0,1.68-1.48,8.86,8.86,0,0,0,1.61-3.61,8.5,8.5,0,0,0,.19-1.3c0-.42,0-.84,0-1.24s-.07-.8-.13-1.19l2.66-.52a10.88,10.88,0,0,1,.19,3.11,12.7,12.7,0,0,1-.75,3.39,12.23,12.23,0,0,1-2,3.63A8.42,8.42,0,0,1,13.41,72a6.66,6.66,0,0,1-2.95.79,8,8,0,0,1-3.1-.5ZM21.6,57.51l-12.75-8L12.94,43a11.35,11.35,0,0,1,1.91-2.35,5.91,5.91,0,0,1,2-1.24,4.44,4.44,0,0,1,2.08-.17,5.81,5.81,0,0,1,2.1.85,6.32,6.32,0,0,1,1.25,1,4.92,4.92,0,0,1,.85,1.28,4.62,4.62,0,0,1,.39,1.49,5.21,5.21,0,0,1-.1,1.7l5.84-.2-2,3.18-5.13.11-.05.07L19.6,52.63l3.64,2.29Zm-4.23-6.28,2.5-4a5.21,5.21,0,0,0,.64-1.4,3.06,3.06,0,0,0,.1-1.22,2.22,2.22,0,0,0-.41-1,3,3,0,0,0-.87-.82,2.34,2.34,0,0,0-2.12-.3,4.14,4.14,0,0,0-2,1.85l-2.5,4Zm14.42-8.32L21,32.37l9-9.17,1.92,1.88-6.84,7,2.15,2.1L33.27,28l1.81,1.76L29,35.93l3,2.93,7-7.14,1.91,1.87ZM38.67,26a7.4,7.4,0,0,1-1.15-2.83,7.09,7.09,0,0,1,.16-3,8.39,8.39,0,0,1,1.46-2.89A11.47,11.47,0,0,1,42,14.75a14.56,14.56,0,0,1,3-1.53,10.71,10.71,0,0,1,3-.63l.1,2.71a4.23,4.23,0,0,0-1,.11,7.21,7.21,0,0,0-1.11.32,9.85,9.85,0,0,0-1.12.47,11.83,11.83,0,0,0-1.06.62,8.66,8.66,0,0,0-2,1.73,5.71,5.71,0,0,0-1.06,1.91,4.32,4.32,0,0,0-.16,1.95,4.66,4.66,0,0,0,.74,1.88,5,5,0,0,0,1.48,1.49,4.35,4.35,0,0,0,1.91.68A6,6,0,0,0,47,26.27a8.23,8.23,0,0,0,2.41-1.11,10.46,10.46,0,0,0,1-.81,9,9,0,0,0,.92-.93,9.58,9.58,0,0,0,.76-1,9.94,9.94,0,0,0,.61-1l2.45,1.17a10.84,10.84,0,0,1-1.71,2.61,12.66,12.66,0,0,1-2.63,2.27,12.52,12.52,0,0,1-3.76,1.73,8.31,8.31,0,0,1-3.36.22,6.66,6.66,0,0,1-2.83-1.12A7.88,7.88,0,0,1,38.67,26ZM55.39,16a7.62,7.62,0,0,1-.48-3.15,7.24,7.24,0,0,1,.82-2.9,8.17,8.17,0,0,1,2-2.42A10.92,10.92,0,0,1,60.87,5.8a10.65,10.65,0,0,1,3.48-.69,8.06,8.06,0,0,1,3.1.55,7,7,0,0,1,2.48,1.68,7.6,7.6,0,0,1,1.67,2.72,7.59,7.59,0,0,1,.49,3.17,7.08,7.08,0,0,1-.8,2.93,8,8,0,0,1-2,2.43,10,10,0,0,1-3.1,1.75,10,10,0,0,1-3.51.67,8.06,8.06,0,0,1-3.1-.56,7.3,7.3,0,0,1-2.5-1.73A7.54,7.54,0,0,1,55.39,16Zm2.89-1.06a5.05,5.05,0,0,0,1.12,1.84A4.52,4.52,0,0,0,61,17.87a5.61,5.61,0,0,0,2,.35,7,7,0,0,0,2.2-.43,6.76,6.76,0,0,0,2-1.09,5.4,5.4,0,0,0,1.29-1.56,5,5,0,0,0,.56-1.91,5,5,0,0,0-.33-2.12A4.85,4.85,0,0,0,67.62,9.3,4.56,4.56,0,0,0,66,8.23a5,5,0,0,0-2-.32,6.8,6.8,0,0,0-2.19.45,7,7,0,0,0-2,1.07A5.07,5.07,0,0,0,58.51,11,4.15,4.15,0,0,0,58,12.83a5.06,5.06,0,0,0,.32,2.1Zm19,2-1.69-15,3-.34,6.06,4.84L89.48.34l3-.34L94.2,15l-3,.35L90,4.55,85.1,10.41l-6-4.64,1.22,10.78Zm28.63-8.1a7.56,7.56,0,0,1,1.35-2.89,7.09,7.09,0,0,1,2.26-2,8.25,8.25,0,0,1,3-.9,11.71,11.71,0,0,1,6.85,1.63,8.31,8.31,0,0,1,2.28,2.17,7,7,0,0,1,1.14,2.78,7.63,7.63,0,0,1-.11,3.18,7.62,7.62,0,0,1-1.35,2.92,7.17,7.17,0,0,1-2.28,2,8.08,8.08,0,0,1-3,.92A10.92,10.92,0,0,1,109.17,17a7.8,7.8,0,0,1-2.28-2.18A7.34,7.34,0,0,1,105.76,12a7.57,7.57,0,0,1,.11-3.2Zm3,.72a5,5,0,0,0-.08,2.14,4.45,4.45,0,0,0,.76,1.82,5.41,5.41,0,0,0,1.49,1.4,7.08,7.08,0,0,0,4.3,1,5.24,5.24,0,0,0,1.94-.58,5.16,5.16,0,0,0,1.52-1.28,5.29,5.29,0,0,0,.9-2,5.1,5.1,0,0,0,.07-2.12,4.7,4.7,0,0,0-.78-1.8,5,5,0,0,0-1.48-1.36A7.37,7.37,0,0,0,115.43,6a7.2,7.2,0,0,0-2.23-.19,5,5,0,0,0-2,.55,4.19,4.19,0,0,0-1.5,1.25,5.1,5.1,0,0,0-.89,1.94ZM123.61,21.6l6.75-13.48,2.73,1.36,6.2,8.6,2.2-4.4,2.75,1.38-6.75,13.48-2.75-1.37,3.1-6.19-6.21-8.58L126.34,23Zm17,9.55,9.5-11.71,2.37,1.92L144.63,31l6.81,5.54-1.69,2.08Zm11,9.62,11-10.36,2.11,2.24L153.68,43Zm4.49,5.42,12.46-8.49,1.72,2.53,1.22,10.52L175.53,48l1.73,2.54L164.79,59l-1.72-2.54,5.71-3.9-1.24-10.51-9.76,6.65Zm10.12,16.56,14-5.49,4.68,11.95-2.5,1-3.56-9.11-2.8,1.1,3.16,8.07-2.35.92-3.16-8.07-3.91,1.52,3.64,9.31-2.48,1ZM11,119.59a7.69,7.69,0,0,1,3.08-.47A6.92,6.92,0,0,1,17,120a8.38,8.38,0,0,1,2.54,2.12,11.32,11.32,0,0,1,1.87,3.37,13.42,13.42,0,0,1,.8,3.35,10.43,10.43,0,0,1-.07,3.11l-2.7-.53a4.58,4.58,0,0,0,.13-1,6.63,6.63,0,0,0-.05-1.17,10.63,10.63,0,0,0-.23-1.23,7,7,0,0,0-.34-1.19,8.89,8.89,0,0,0-1.25-2.36,5.59,5.59,0,0,0-1.65-1.49,4.24,4.24,0,0,0-1.88-.6,4.57,4.57,0,0,0-2,.3,4.79,4.79,0,0,0-2.92,2.85,5.93,5.93,0,0,0-.33,2.24,8.63,8.63,0,0,0,.56,2.63,7.9,7.9,0,0,0,.56,1.22,8.12,8.12,0,0,0,.69,1.13,12.65,12.65,0,0,0,.8,1,8.25,8.25,0,0,0,.85.83l-1.71,2.13a10.36,10.36,0,0,1-2.18-2.28,12.72,12.72,0,0,1-1.62-3.11,12.54,12.54,0,0,1-.84-4.1,8.41,8.41,0,0,1,.56-3.37,6.94,6.94,0,0,1,1.74-2.54A8.33,8.33,0,0,1,11,119.59Zm.91,22.22,12.91-8.16L29,140.21A11.72,11.72,0,0,1,30.31,143a6.31,6.31,0,0,1,.25,2.38,4.49,4.49,0,0,1-.76,2,6.06,6.06,0,0,1-1.69,1.55,6.57,6.57,0,0,1-1.47.7,5.06,5.06,0,0,1-1.53.22,5,5,0,0,1-1.54-.29,5.83,5.83,0,0,1-1.52-.83l-2.36,5.41-2-3.2,2.13-4.75-.05-.08-2.49-4-3.68,2.33Zm7.59-1.14,2.54,4a5.19,5.19,0,0,0,1,1.18,3.27,3.27,0,0,0,1.09.62,2.45,2.45,0,0,0,1.11.09,3.27,3.27,0,0,0,1.12-.47,2.4,2.4,0,0,0,1.21-1.8,4.24,4.24,0,0,0-.83-2.59l-2.54-4Zm4.1,17.63,10.91-10.68,9.09,9.28-1.94,1.9-6.93-7.07-2.17,2.12,6.15,6.27-1.84,1.79-6.14-6.26-3,3,7.07,7.22-1.93,1.9Zm17.18,5.58A7.6,7.6,0,0,1,43,161.66a6.86,6.86,0,0,1,2.82-1.07,8.48,8.48,0,0,1,3.3.18,11.43,11.43,0,0,1,3.51,1.58,14.15,14.15,0,0,1,2.65,2.2,10.5,10.5,0,0,1,1.8,2.54l-2.47,1.19a5.52,5.52,0,0,0-.51-.9,8.72,8.72,0,0,0-.75-.9,9.23,9.23,0,0,0-.91-.85,8.77,8.77,0,0,0-1-.75A8.92,8.92,0,0,0,49,163.74a5.74,5.74,0,0,0-2.21-.21,4.4,4.4,0,0,0-1.87.65,4.69,4.69,0,0,0-1.46,1.45,4.88,4.88,0,0,0-.76,2,4.39,4.39,0,0,0,.14,2.06,5.83,5.83,0,0,0,1.07,2,8.49,8.49,0,0,0,2,1.79,8.38,8.38,0,0,0,1.18.64,9.27,9.27,0,0,0,1.23.49,8.49,8.49,0,0,0,1.23.3,8.2,8.2,0,0,0,1.17.16l-.09,2.73a10.16,10.16,0,0,1-3.11-.53,12.22,12.22,0,0,1-3.16-1.52,12.46,12.46,0,0,1-3.13-2.78,8.36,8.36,0,0,1-1.56-3,6.84,6.84,0,0,1-.13-3.08,8.33,8.33,0,0,1,1.21-2.94Zm15.9,9.73a7.73,7.73,0,0,1,1.69-2.75,7,7,0,0,1,2.51-1.7A8.08,8.08,0,0,1,64,168.6a10.53,10.53,0,0,1,3.55.67A10.3,10.3,0,0,1,70.73,171a8,8,0,0,1,2,2.44,7,7,0,0,1,.82,2.92,7.61,7.61,0,0,1-.47,3.19,7.79,7.79,0,0,1-1.7,2.78,7.2,7.2,0,0,1-2.52,1.73,8.18,8.18,0,0,1-3.15.6,10.76,10.76,0,0,1-3.55-.68,10.24,10.24,0,0,1-3.15-1.77,8.33,8.33,0,0,1-2-2.47,7.25,7.25,0,0,1-.81-2.95,7.62,7.62,0,0,1,.48-3.22Zm2.92,1.06a5.18,5.18,0,0,0-.33,2.16,4.49,4.49,0,0,0,.55,1.91,5.43,5.43,0,0,0,1.33,1.59,6.82,6.82,0,0,0,2,1.1,7.18,7.18,0,0,0,2.23.44,5.41,5.41,0,0,0,2-.37,4.85,4.85,0,0,0,1.68-1.1,5.37,5.37,0,0,0,1.12-1.88,5,5,0,0,0,.33-2.12,4.63,4.63,0,0,0-.58-1.91A5.07,5.07,0,0,0,68.63,173a6.82,6.82,0,0,0-2-1.1,6.93,6.93,0,0,0-2.23-.43,5.22,5.22,0,0,0-2,.3,4.64,4.64,0,0,0-1.65,1.1,5.19,5.19,0,0,0-1.12,1.84Zm16.37,13,1.69-15.18,3.09.35,4.9,6.14,6.12-4.92,3.07.34-1.68,15.18-3.07-.34,1.21-10.92L85.21,183l-4.91-5.94L79.08,188Zm28.92-7a7.54,7.54,0,0,1-.1-3.23,7,7,0,0,1,1.16-2.8,7.91,7.91,0,0,1,2.3-2.19,10.64,10.64,0,0,1,3.33-1.4,10.48,10.48,0,0,1,3.61-.26,8.09,8.09,0,0,1,3.05.91,7.12,7.12,0,0,1,2.29,2,7.57,7.57,0,0,1,1.37,2.92,7.69,7.69,0,0,1,.11,3.26,7.16,7.16,0,0,1-1.15,2.84,8,8,0,0,1-2.3,2.23,10.63,10.63,0,0,1-3.33,1.39,10.42,10.42,0,0,1-3.6.26,8.24,8.24,0,0,1-3.06-.94,7.3,7.3,0,0,1-2.31-2,7.72,7.72,0,0,1-1.37-2.95Zm3-.73a5.29,5.29,0,0,0,.91,2,4.58,4.58,0,0,0,1.52,1.29,5.5,5.5,0,0,0,2,.6,6.84,6.84,0,0,0,2.27-.18,7.07,7.07,0,0,0,2.1-.86,5.62,5.62,0,0,0,1.49-1.42,4.69,4.69,0,0,0,.78-1.85,5.23,5.23,0,0,0-.08-2.18,5.09,5.09,0,0,0-.9-2,4.66,4.66,0,0,0-1.53-1.28,5.29,5.29,0,0,0-2-.55,7.07,7.07,0,0,0-2.26.19,6.74,6.74,0,0,0-2.11.86,5.24,5.24,0,0,0-1.51,1.37,4.54,4.54,0,0,0-.78,1.83,5.21,5.21,0,0,0,.08,2.14Zm20.76,1.89-6.84-13.66,2.78-1.39,10.75.2-2.24-4.46,2.78-1.39,6.84,13.66L140,176.19l-3.14-6.26-10.72-.17,5.35,10.69Zm19.09-10.91-9.63-11.85,2.4-2,7.92,9.74,6.89-5.6,1.71,2.12Zm12.07-10.6-11.09-10.5,2.15-2.27L162,158.06Zm5.54-6.72L152.78,145l1.75-2.56,9.49-5-4.11-2.82,1.75-2.56,12.61,8.62-1.75,2.56-5.79-3.95-9.45,5.06,9.87,6.75Zm11.39-18.85-14.21-5.58,4.75-12.09,2.53,1-3.62,9.21,2.83,1.12,3.21-8.17,2.38.94-3.21,8.16,4,1.56,3.69-9.41,2.52,1ZM.05,96.59a5.83,5.83,0,1,1,5.83,5.83A5.83,5.83,0,0,1,.05,96.59Zm173.39,0a5.83,5.83,0,1,1,5.83,5.83,5.83,5.83,0,0,1-5.83-5.83Z" transform="translate(-0.05)"/></g></g></g></svg>