<svg xmlns="http://www.w3.org/2000/svg" viewBox="0 0 987.26 74.85"><defs><style>.cls-1{fill:#fff;}.cls-2{fill:#6b7280;}</style></defs><g id="Layer_2" data-name="Layer 2"><g id="Layer_1-2" data-name="Layer 1"><path class="cls-1" d="M0,37A35.91,35.91,0,0,1,2.94,22.43a33.47,33.47,0,0,1,8.49-11.68A40.63,40.63,0,0,1,25.05,2.94,54.25,54.25,0,0,1,43.26.09a69.25,69.25,0,0,1,16.32,1.8A51.68,51.68,0,0,1,73.4,7.37L66.61,18.53A25.92,25.92,0,0,0,62.2,16.3a38.8,38.8,0,0,0-5.31-1.64,49.43,49.43,0,0,0-5.82-1.05,48.43,48.43,0,0,0-6-.38A41.75,41.75,0,0,0,32.49,15a27.2,27.2,0,0,0-9.35,4.89,21.07,21.07,0,0,0-5.79,7.5,23.07,23.07,0,0,0-2,9.59,23.9,23.9,0,0,0,2,9.93,22.11,22.11,0,0,0,5.94,7.8,28,28,0,0,0,9.5,5.12,40.81,40.81,0,0,0,12.72,1.85A42.39,42.39,0,0,0,52,61.18a49.26,49.26,0,0,0,6.13-1.27A47.32,47.32,0,0,0,63.8,58a48.1,48.1,0,0,0,5.14-2.5l6.79,11.18a50.17,50.17,0,0,1-13.78,6A62.36,62.36,0,0,1,45.3,74.8a60.83,60.83,0,0,1-19.72-2.91,40.84,40.84,0,0,1-14.17-8,33,33,0,0,1-8.55-12A38.61,38.61,0,0,1,0,37ZM92,73.82V1h37.05A53.37,53.37,0,0,1,143.6,2.73a27.59,27.59,0,0,1,10.19,5.06,20.46,20.46,0,0,1,6.06,8.05,28,28,0,0,1,2,10.77,29.83,29.83,0,0,1-1,7.71,22.88,22.88,0,0,1-3,6.74,23.42,23.42,0,0,1-5.11,5.48,27.88,27.88,0,0,1-7.22,4l15.84,23.31H143.28L129.57,53.13h-.42l-22.38,0V73.82Zm14.77-33.5h22.66a24.15,24.15,0,0,0,7.33-1A14.92,14.92,0,0,0,142,36.58a10.87,10.87,0,0,0,3.16-4.32,14.66,14.66,0,0,0,1.05-5.65q0-6.1-4.2-9.45t-12.62-3.32H106.77Zm72.53,33.5V1h62v13H194.08V28.48h41.85V40.64H194.08V60.92H242.3v12.9Zm75-36.86a36.06,36.06,0,0,1,2.92-14.53,33.3,33.3,0,0,1,8.52-11.68,40.49,40.49,0,0,1,13.61-7.81A54.17,54.17,0,0,1,297.53.09a69.37,69.37,0,0,1,16.34,1.8A52.14,52.14,0,0,1,327.7,7.37l-6.82,11.16a25.69,25.69,0,0,0-4.39-2.23,39.53,39.53,0,0,0-5.33-1.64,51.8,51.8,0,0,0-11.76-1.43A41.93,41.93,0,0,0,286.76,15a27.19,27.19,0,0,0-9.33,4.89,20.84,20.84,0,0,0-5.79,7.5,22.92,22.92,0,0,0-2,9.59,23.6,23.6,0,0,0,2.06,9.93,21.88,21.88,0,0,0,5.94,7.8,28,28,0,0,0,9.5,5.12,40.63,40.63,0,0,0,12.7,1.85,42.56,42.56,0,0,0,6.39-.48,49.26,49.26,0,0,0,6.13-1.27A47.32,47.32,0,0,0,318.09,58a45.13,45.13,0,0,0,5.12-2.5L330,66.64a50.43,50.43,0,0,1-13.8,6,62.27,62.27,0,0,1-16.63,2.16,60.75,60.75,0,0,1-19.72-2.91,40.71,40.71,0,0,1-14.16-8,32.89,32.89,0,0,1-8.56-12A38.61,38.61,0,0,1,254.29,37Zm87.7.23a36.77,36.77,0,0,1,3-15.1,33.84,33.84,0,0,1,8.49-11.76,38.7,38.7,0,0,1,13.16-7.64,54.87,54.87,0,0,1,33.94,0,38.55,38.55,0,0,1,13.17,7.64,34,34,0,0,1,8.52,11.76,37.08,37.08,0,0,1,3,15.1,37.61,37.61,0,0,1-3,15.21,34.85,34.85,0,0,1-8.52,11.92,38.93,38.93,0,0,1-13.17,7.75,53.19,53.19,0,0,1-33.94,0,39.08,39.08,0,0,1-13.16-7.75A34.64,34.64,0,0,1,345,52.4a37.29,37.29,0,0,1-3-15.21Zm14.78,0a24.56,24.56,0,0,0,2,10.15,22.22,22.22,0,0,0,5.65,7.71A25,25,0,0,0,373,60a34.14,34.14,0,0,0,21.4,0,24.66,24.66,0,0,0,8.51-4.93,22.55,22.55,0,0,0,5.63-7.71,24.25,24.25,0,0,0,2.05-10.15,24,24,0,0,0-2.05-10.12,21.79,21.79,0,0,0-5.63-7.56,24.44,24.44,0,0,0-8.51-4.74,35.73,35.73,0,0,0-21.4,0,24.76,24.76,0,0,0-8.52,4.74,21.47,21.47,0,0,0-5.65,7.56,24.32,24.32,0,0,0-2,10.12Zm85,36.63V1h14.78L483,27.55,509.5,1h14.77V73.82H509.5V21.44L483,46.92,456.56,21.44V73.82Z"/><path class="cls-2" d="M530.32,37.19a36.93,36.93,0,0,1,3-15.1,33.92,33.92,0,0,1,8.52-11.76A38.27,38.27,0,0,1,555,2.69a54.94,54.94,0,0,1,34,0,38.51,38.51,0,0,1,13.16,7.64,34,34,0,0,1,8.51,11.76,36.93,36.93,0,0,1,3,15.1,37.46,37.46,0,0,1-3,15.21,34.83,34.83,0,0,1-8.51,11.92A38.89,38.89,0,0,1,589,72.07a53.25,53.25,0,0,1-34,0,38.65,38.65,0,0,1-13.13-7.75,34.72,34.72,0,0,1-8.52-11.92,37.46,37.46,0,0,1-3-15.21Zm14.78,0a24.41,24.41,0,0,0,2,10.15,22.19,22.19,0,0,0,5.64,7.71A24.85,24.85,0,0,0,561.31,60a34.08,34.08,0,0,0,21.38,0,24.71,24.71,0,0,0,8.52-4.93,22.55,22.55,0,0,0,5.63-7.71,24.25,24.25,0,0,0,2.06-10.15,24,24,0,0,0-2.06-10.12,21.79,21.79,0,0,0-5.63-7.56,24.48,24.48,0,0,0-8.52-4.74,35.66,35.66,0,0,0-21.38,0,24.62,24.62,0,0,0-8.53,4.74,21.45,21.45,0,0,0-5.64,7.56,24.17,24.17,0,0,0-2,10.12ZM630,73.82V1h14.77l45.4,23.77V1h14.78V73.82H690.15V40.41l-45.4-23.63v57Zm95.53,0V1h14.78V60.86h42.38v13Zm69.59,0V1H810V73.82Zm33.59,0V1h14.78l45.4,23.77V1h14.78V73.82H888.87V40.41l-45.4-23.63v57Zm95.56,0V1h62v13H939V28.48h41.85V40.64H939V60.92h48.24v12.9Z"/></g></g></svg>